<svg width="19" height="20" viewBox="0 0 19 20" fill="none" xmlns="http://www.w3.org/2000/svg">
<path d="M9.5 19.9999L5.9375 13.5582H13.0625L9.5 19.9999Z" fill="#FFF5D9"/>
<path d="M10.6872 13.5698H9.4997H8.3122L6.53125 12.2979V13.3888C6.53125 13.3888 6.53125 15.9312 9.5 15.9312C12.4687 15.9312 12.4687 13.3888 12.4687 13.3888V12.2976L10.6872 13.5698Z" fill="#FFE9A1"/>
<path d="M14.5469 6.51593C14.5469 6.13932 14.25 5.76271 13.9531 5.76271C13.6562 5.76271 13.6562 6.13932 13.6562 6.13932V5.76271C13.6509 2.71187 13.3522 0.677979 9.5 0.677979C5.64775 0.677979 5.34909 2.71187 5.34375 5.76271V8.47355L6.53125 11.8634L8.0468 13.2179C8.21572 13.4346 8.45767 13.5583 8.7118 13.5583H9.5H10.2882C10.5423 13.5583 10.7843 13.4346 10.9532 13.2179L12.4687 11.8634L13.4205 9.14576C14.2622 9.0766 14.5469 7.61898 14.5469 6.51593Z" fill="#FFF5D9"/>
<path d="M5.34375 5.76271V6.13932C5.34375 6.13932 5.34375 5.76271 5.04688 5.76271C4.75 5.76271 4.45312 6.13932 4.45312 6.51593C4.45312 7.61864 4.73723 9.0766 5.57917 9.14576L6.53125 11.8634L8.0468 13.2179C8.21572 13.4346 8.45767 13.5583 8.7118 13.5583H9.5V0.677979C5.64775 0.677979 5.34909 2.71187 5.34375 5.76271Z" fill="white"/>
<path d="M7.42152 10.8577L7.42509 10.8464H7.1196L7.12465 10.8577H7.42152Z" fill="#FFF5D9"/>
<path d="M9.4997 13.5697H8.3122L6.53125 12.2979V13.3887C6.53125 13.3887 6.53125 15.9311 9.5 15.9311L9.4997 13.5697Z" fill="#FFF5D9"/>
<path d="M13.302 2.12677C13.3311 1.98508 13.3453 1.84203 13.3453 1.69898C13.3453 0.735592 13.0758 0.0776272 9.49991 0.0135596V0.00542397C9.31169 0.00203415 9.11724 0 8.91062 0C5.19642 0 5.03877 2.70542 5.04709 3.28101C5.04798 3.34982 5.05124 3.39016 5.05124 3.39016C5.05124 3.39016 5.05124 5.09185 5.05124 5.76846C5.05124 5.76981 5.05124 5.77185 5.05124 5.7732C5.05124 5.7732 5.34812 6.45117 5.64499 7.12913V9.50201L5.93712 11.8739L8.31212 13.5698H9.49962H10.6871L13.0621 11.8739L13.3542 9.50201V7.12913H13.3634L13.9572 5.7732V4.06779C13.9575 3.39762 13.7378 2.7305 13.302 2.12677ZM11.8746 10.8579H11.5777L10.984 8.82404H9.49962H8.01524L7.42149 10.8579H7.12462L6.23399 8.82404V3.27897C7.22526 4.04033 8.2563 4.08304 9.49962 4.07728V4.07626C10.2727 4.07219 11.8423 4.08677 12.7652 3.13152V8.82404L11.8746 10.8579Z" fill="#3D320C"/>
<path d="M9.50001 4.07728V0.00542397C9.31209 0.00203415 9.11764 0 8.91101 0C4.75476 0 5.05164 3.38982 5.05164 3.38982C5.05164 3.38982 5.05164 5.09524 5.05164 5.7732C5.05164 5.7732 5.34851 6.45117 5.64539 7.12913V9.50201L5.93751 11.8739L8.31251 13.5698H9.50001V8.82404H8.01564L7.42189 10.8579H7.12501L6.23439 8.82404V3.27626C6.88425 3.77524 7.40259 4.08643 9.50001 4.07728Z" fill="#66510D"/>
<path d="M8.60933 6.43968C8.60933 6.06545 8.34333 5.76172 8.01558 5.76172C8.01499 5.76172 8.0144 5.76206 8.0138 5.76206C8.0141 5.76918 8.01558 5.77596 8.01558 5.78307C8.01558 6.15663 7.75077 6.45968 7.42361 6.4607C7.43341 6.8251 7.69377 7.11765 8.01558 7.11765C8.34333 7.11765 8.60933 6.81426 8.60933 6.43968Z" fill="#3D320C"/>
<path d="M11.5763 6.43968C11.5763 6.06545 11.3103 5.76172 10.9826 5.76172C10.982 5.76172 10.9814 5.76206 10.9808 5.76206C10.9811 5.76918 10.9826 5.77596 10.9826 5.78307C10.9826 6.15663 10.7178 6.45968 10.3906 6.4607C10.4004 6.8251 10.6608 7.11765 10.9826 7.11765C11.3103 7.11765 11.5763 6.81426 11.5763 6.43968Z" fill="#3D320C"/>
<path d="M5.9375 13.5581L6.53125 13.2191L9.49554 14.9076L7.71875 16.9479L5.9375 13.5581Z" fill="white"/>
<path d="M13.0625 13.5581L12.4688 13.2191L9.50446 14.9076L11.2813 16.9479L13.0625 13.5581Z" fill="white"/>
<path d="M10.6875 19.9999L9.85655 16.5423L10.3903 15.9328L9.49436 14.9077L8.60433 15.924L9.14405 16.5403L8.3125 19.9999H10.6875Z" fill="#FA9200"/>
<path d="M9.5 19.9999V14.9142L9.49436 14.9077L8.60433 15.924L9.14405 16.5403L8.3125 19.9999H9.5Z" fill="#FFAA00"/>
<path d="M0 19.9999L1.1875 16.2711C1.37008 15.8192 1.69159 15.4595 2.09089 15.2602L5.9375 13.5592L9.5 19.9999H0Z" fill="#3D320C"/>
<path d="M19 19.9999L17.8125 16.2711C17.6299 15.8192 17.3084 15.4595 16.9091 15.2602L13.0625 13.5592L9.5 19.9999H19Z" fill="#3D320C"/>
<path d="M15.7344 17.6261H12.7656V18.3041H15.7344V17.6261Z" fill="white"/>
<path d="M8.3125 9.82947H10.6875C10.6875 9.82947 10.6875 11.1864 9.5 11.1864C8.3125 11.1864 8.3125 9.82947 8.3125 9.82947Z" fill="#FFF5D9"/>
</svg>
