<svg width="15" height="20" viewBox="0 0 15 20" fill="none" xmlns="http://www.w3.org/2000/svg">
<path d="M9.17423 12.5435H7.49996H5.8257C5.40714 13.1158 4.57001 14.8328 4.57001 15.2144C5.40714 15.2144 6.72206 16.1682 7.49996 16.1682C8.27787 16.1682 9.59279 15.2144 10.4299 15.2144C10.4299 14.8328 9.59279 13.1158 9.17423 12.5435Z" fill="#F2D6CE"/>
<path d="M9.1744 12.5435H8.54656C8.96512 13.1158 9.80225 14.8328 9.80225 15.2144C9.06934 15.2144 7.97061 15.9452 7.18622 16.1274C7.29777 16.1534 7.40324 16.1682 7.50014 16.1682C8.27805 16.1682 9.59297 15.2144 10.4301 15.2144C10.4301 14.8328 9.59297 13.1158 9.1744 12.5435Z" fill="#E6CBC3"/>
<path d="M14.4064 17.0267C14.4064 16.0752 12.3688 15.2699 9.56069 15.0005C9.28715 14.9742 8.68923 15.1245 8.32424 15.3487C7.90693 15.669 7.70288 15.93 7.50009 16.1684C7.36929 16.0074 7.19265 15.8346 6.81657 15.4277C6.47439 15.197 5.86894 14.9625 5.60545 14.9854C2.71254 15.2386 0.594177 16.0566 0.594177 17.0269V20H14.4064V17.0267Z" fill="#91D2F2"/>
<path d="M5.96316 15.5423C6.42755 15.9418 6.91142 16.5141 7.04222 16.6751C7.1366 16.5637 7.36975 16.2934 7.48694 16.1684C7.39088 16.0666 6.96625 15.5896 6.81661 15.4277C6.47443 15.197 5.86898 14.9625 5.60549 14.9854C5.48767 14.9957 5.37151 15.0074 5.25641 15.0196C5.55129 15.0904 5.7139 15.374 5.96316 15.5423Z" fill="#8AC7E6"/>
<path d="M9.56056 15.0005C9.47162 14.9919 9.34688 15.0037 9.20813 15.0289C11.8729 15.3233 13.7784 16.1066 13.7784 17.0269V19.9999H14.4063V17.0269C14.4063 16.0751 12.3687 15.2698 9.56056 15.0005Z" fill="#8AC7E6"/>
<path d="M14.4064 7.39257C14.4064 10.8698 11.3147 13.6882 7.50008 13.6882C3.68548 13.6882 0.59375 10.8698 0.59375 7.39257C0.59375 3.91549 3.68548 2.05084 7.50008 2.05084C11.3147 2.05084 14.4064 3.91549 14.4064 7.39257Z" fill="#FFE1D9"/>
<path d="M1.22535 8.108C1.22535 8.6084 1.20003 9.19237 0.861616 9.19237C0.523415 9.19237 0 8.6084 0 8.108C0 7.60759 0.27416 7.20181 0.61257 7.20181C0.95098 7.20181 1.22535 7.60759 1.22535 8.108Z" fill="#FFE1D9"/>
<path d="M13.7747 8.108C13.7747 8.6084 13.8 9.19237 14.1384 9.19237C14.4766 9.19237 15 8.6084 15 8.108C15 7.60759 14.7258 7.20181 14.3874 7.20181C14.049 7.20181 13.7747 7.60759 13.7747 8.108Z" fill="#FFE1D9"/>
<path d="M7.50014 2.05084C7.39487 2.05084 7.29044 2.05275 7.18622 2.05561C10.8547 2.15558 13.7786 4.01145 13.7786 7.39257C13.7786 10.7737 10.8547 13.5312 7.18622 13.6809C7.29044 13.6851 7.39487 13.6882 7.50014 13.6882C11.3147 13.6882 14.4065 10.8698 14.4065 7.39257C14.4065 3.91549 11.3147 2.05084 7.50014 2.05084Z" fill="#F2D6CE"/>
<path d="M11.9722 3.14895C11.2251 2.32174 9.64962 1.69314 7.65704 1.69314C4.9102 1.69314 1.90177 1.35928 1.32624 0C1.01608 0.866505 1.51104 2.71589 2.04408 3.89622C1.13579 4.76788 0.59375 5.93867 0.59375 7.39257C0.59375 7.75963 0.630165 8.11886 0.696298 8.46874C0.897628 7.5347 1.44951 6.57872 2.79289 5.77269C4.0264 6.18553 5.68078 6.43869 7.50008 6.43869C9.31937 6.43869 10.9738 6.18553 12.2073 5.77269C13.5506 6.57872 14.1025 7.53451 14.3039 8.46874C14.37 8.11886 14.4064 7.75963 14.4064 7.39257C14.4064 5.47108 13.4609 4.04293 11.9722 3.14895Z" fill="#E78244"/>
<path d="M2.16496 5.77271C1.4287 6.21435 0.931236 6.70121 0.598267 7.20467C0.596174 7.26705 0.593872 7.32925 0.593872 7.39258C0.593872 7.75964 0.630287 8.11887 0.696421 8.46875C0.887077 7.58393 1.39312 6.68004 2.58792 5.90167C2.44268 5.86046 2.30015 5.81792 2.16496 5.77271Z" fill="#D97A40"/>
<path d="M11.5794 5.77271C10.4172 6.1617 8.88066 6.40589 7.1861 6.43336C7.29095 6.43508 7.39412 6.43871 7.50002 6.43871C9.11987 6.43871 10.607 6.23725 11.7847 5.90186C11.7179 5.85836 11.6503 5.81525 11.5794 5.77271Z" fill="#D97A40"/>
<path d="M11.9723 3.14895C11.2251 2.32174 9.64964 1.69314 7.65706 1.69314C4.91022 1.69314 1.90179 1.35928 1.32626 0C1.26306 0.176277 1.23459 0.394716 1.23187 0.638528C2.3507 1.4684 4.77733 1.69314 7.02921 1.69314C9.02179 1.69314 10.5973 2.32174 11.3444 3.14895C12.7832 4.01297 13.712 5.37741 13.7729 7.20256C14.0486 7.61845 14.213 8.04579 14.3039 8.46874C14.37 8.11886 14.4064 7.75963 14.4064 7.39257C14.4064 5.47108 13.4609 4.04293 11.9723 3.14895Z" fill="#D97A40"/>
<path d="M10.2098 11.1414C10.3285 11.3064 9.18726 12.2376 7.50002 12.2376C5.81279 12.2376 4.67136 11.3064 4.79086 11.1414C4.90973 10.9762 6.061 11.5222 7.50002 11.5222C8.93905 11.5222 10.0909 10.9764 10.2098 11.1414Z" fill="#E6BAAD"/>
<path d="M7.49996 16.1683L6.89827 15.6078C6.89827 15.6078 6.23108 15.8224 5.96947 16.2637C5.38076 16.2278 4.33435 15.5959 3.99426 15.2144C4.28203 14.8685 4.56393 14.6835 4.75647 14.5909C5.06684 14.6302 6.93761 15.2144 6.93761 15.2144L7.49996 16.1683Z" fill="#F5F5F5"/>
<path d="M7.50006 16.1683L8.10175 15.6078C8.10175 15.6078 8.76894 15.8224 9.03055 16.2637C9.61926 16.2278 10.6657 15.5959 11.0058 15.2144C10.718 14.8685 10.4361 14.6835 10.2435 14.5909C9.93318 14.6302 8.06261 15.2144 8.06261 15.2144L7.50006 16.1683Z" fill="#F5F5F5"/>
<path d="M4.12097 9.54543C4.74006 9.54543 5.24194 9.03667 5.24194 8.40907C5.24194 7.78147 4.74006 7.27271 4.12097 7.27271C3.50187 7.27271 3 7.78147 3 8.40907C3 9.03667 3.50187 9.54543 4.12097 9.54543Z" fill="#F5F5F5"/>
<path d="M4.12097 8.97728C4.43052 8.97728 4.68145 8.72289 4.68145 8.40909C4.68145 8.0953 4.43052 7.84091 4.12097 7.84091C3.81142 7.84091 3.56049 8.0953 3.56049 8.40909C3.56049 8.72289 3.81142 8.97728 4.12097 8.97728Z" fill="#734822"/>
<path d="M10.5665 9.54543C11.1856 9.54543 11.6875 9.03667 11.6875 8.40907C11.6875 7.78147 11.1856 7.27271 10.5665 7.27271C9.94743 7.27271 9.44556 7.78147 9.44556 8.40907C9.44556 9.03667 9.94743 9.54543 10.5665 9.54543Z" fill="#F5F5F5"/>
<path d="M10.5665 8.97728C10.8761 8.97728 11.127 8.72289 11.127 8.40909C11.127 8.0953 10.8761 7.84091 10.5665 7.84091C10.257 7.84091 10.006 8.0953 10.006 8.40909C10.006 8.72289 10.257 8.97728 10.5665 8.97728Z" fill="#734822"/>
</svg>
