<svg width="40" height="38" viewBox="0 0 40 38" fill="none" xmlns="http://www.w3.org/2000/svg">
<path d="M30.6267 23.7207C30.3242 23.4561 29.9371 23.2894 29.5236 23.2455C29.1101 23.2017 28.6923 23.2832 28.333 23.4777L27.708 21.1286V21.0765V21.0302C27.6774 20.9679 27.6351 20.9111 27.583 20.8625L26.7018 20.0466C26.5276 19.8848 26.3206 19.7564 26.0927 19.6688C25.8648 19.5812 25.6205 19.5361 25.3737 19.5361C25.1269 19.5361 24.8826 19.5812 24.6546 19.6688C24.4267 19.7564 24.2198 19.8848 24.0456 20.0466L23.6018 19.6301L31.8767 11.8943C31.9495 11.8275 32.0388 11.7784 32.1369 11.7512C32.235 11.7239 32.3388 11.7194 32.4392 11.738C33.3916 11.9279 34.379 11.9061 35.3204 11.6744C36.3882 11.4079 37.3618 10.8867 38.1437 10.1627C38.9257 9.43878 39.4888 8.53753 39.7766 7.54902C39.9754 6.86107 40.0326 6.14468 39.9454 5.43715C39.9187 5.2195 39.8259 5.01333 39.6776 4.8426C39.5294 4.67187 39.3319 4.5436 39.108 4.4727C38.8841 4.40179 38.6431 4.39117 38.413 4.44207C38.1828 4.49296 37.973 4.60328 37.8079 4.7602L36.0704 6.4034C36.0123 6.45763 35.9432 6.50068 35.8671 6.53005C35.7909 6.55943 35.7092 6.57455 35.6267 6.57455C35.5442 6.57455 35.4625 6.55943 35.3863 6.53005C35.3102 6.50068 35.2411 6.45763 35.1829 6.4034L33.433 4.76598C33.3735 4.71055 33.3268 4.64455 33.2957 4.57196C33.2645 4.49937 33.2496 4.42169 33.2517 4.34361C33.2512 4.26608 33.2676 4.18926 33.2998 4.11769C33.332 4.04613 33.3794 3.98129 33.4392 3.92702L35.1829 2.28382C35.3496 2.1293 35.4655 1.9343 35.5175 1.72134C35.5695 1.50839 35.5554 1.28616 35.4767 1.08034C35.3971 0.878764 35.2584 0.701661 35.0763 0.56883C34.8942 0.435999 34.6758 0.352674 34.4455 0.32817C32.9535 0.174601 31.4516 0.523319 30.2145 1.31056C28.9774 2.0978 28.0876 3.27097 27.708 4.61555C27.4575 5.48513 27.4339 6.3974 27.6393 7.27708C27.6667 7.37027 27.6685 7.46833 27.6445 7.56231C27.6204 7.6563 27.5714 7.74323 27.5018 7.81517L19.1206 15.5336L8.89572 6.07939L8.57073 4.5519C8.49902 4.21445 8.32064 3.90432 8.05823 3.66087L4.78952 0.634824C4.67343 0.527233 4.53557 0.44188 4.38382 0.383646C4.23208 0.325411 4.06942 0.295437 3.90515 0.295437C3.74088 0.295437 3.57823 0.325411 3.42648 0.383646C3.27473 0.44188 3.13688 0.527233 3.02079 0.634824L0.370813 3.08806C0.254594 3.19553 0.162396 3.32316 0.0994915 3.46364C0.0365868 3.60412 0.00420882 3.7547 0.00420882 3.90677C0.00420882 4.05884 0.0365868 4.20942 0.0994915 4.34991C0.162396 4.49039 0.254594 4.61801 0.370813 4.72548L3.63328 7.75152C3.89625 7.99446 4.23125 8.15959 4.59577 8.22597L6.24575 8.52684L16.4644 17.9926L8.12698 25.7516C8.05422 25.8183 7.96487 25.8674 7.86679 25.8947C7.76871 25.9219 7.6649 25.9264 7.56449 25.9078C6.61215 25.7179 5.62474 25.7397 4.68327 25.9714C3.61576 26.2327 2.64086 26.7485 1.85571 27.4672C1.07055 28.186 0.502557 29.0826 0.208315 30.0679C0.00960608 30.7558 -0.0476374 31.4722 0.0395668 32.1797C0.0676093 32.395 0.160401 32.5986 0.307368 32.7674C0.454334 32.9362 0.649564 33.0634 0.870808 33.1344C1.09455 33.2077 1.33622 33.2205 1.56753 33.1713C1.79885 33.1222 2.01026 33.013 2.17704 32.8567L3.91453 31.2135C3.97263 31.1593 4.04175 31.1162 4.11791 31.0868C4.19407 31.0575 4.27576 31.0423 4.35827 31.0423C4.44078 31.0423 4.52247 31.0575 4.59863 31.0868C4.67479 31.1162 4.74392 31.1593 4.80202 31.2135L6.57075 32.8509C6.68621 32.9587 6.75131 33.1041 6.752 33.2559C6.75249 33.3335 6.73614 33.4103 6.70393 33.4818C6.67172 33.5534 6.6243 33.6182 6.5645 33.6725L4.82077 35.3157C4.65299 35.4692 4.53553 35.6634 4.48195 35.8761C4.42838 36.0887 4.44088 36.311 4.518 36.5173C4.59513 36.7237 4.73373 36.9056 4.91781 37.0421C5.10188 37.1786 5.32392 37.2641 5.55826 37.2887C5.78866 37.3118 6.02025 37.3234 6.252 37.3234C7.63377 37.3228 8.97637 36.8984 10.0699 36.1164C11.1634 35.3343 11.9461 34.2389 12.2957 33.0013C12.5462 32.1318 12.5698 31.2195 12.3644 30.3398C12.337 30.2466 12.3352 30.1486 12.3593 30.0546C12.3833 29.9606 12.4323 29.8737 12.5019 29.8017L20.8831 22.0833L21.3331 22.4941C21.1583 22.6553 21.0196 22.847 20.925 23.058C20.8303 23.2689 20.7816 23.4951 20.7816 23.7236C20.7816 23.9521 20.8303 24.1783 20.925 24.3892C21.0196 24.6002 21.1583 24.7919 21.3331 24.9531L22.2143 25.7516C22.2669 25.7998 22.3282 25.839 22.3956 25.8673H22.4456H22.5018L25.0331 26.4459C24.7953 26.7847 24.6927 27.1897 24.7429 27.5911C24.7931 27.9924 24.993 28.365 25.3081 28.6445L34.1517 36.8143C34.5033 37.1393 34.9798 37.3219 35.4767 37.3219C35.9736 37.3219 36.4501 37.1393 36.8017 36.8143L39.4517 34.361C39.8028 34.0356 40 33.5944 40 33.1344C40 32.6744 39.8028 32.2333 39.4517 31.9078L30.6267 23.7207ZM28.358 8.61363C28.5771 8.40977 28.7381 8.15871 28.8265 7.883C28.9149 7.60729 28.9278 7.31557 28.8643 7.03407C28.7026 6.33616 28.7197 5.61289 28.9143 4.9222C29.1429 4.12564 29.5953 3.39931 30.2254 2.817C30.8555 2.2347 31.6409 1.81718 32.5017 1.60686C33.0937 1.45757 33.7114 1.4163 34.3205 1.48536L32.5517 3.12856C32.3769 3.28982 32.2382 3.48144 32.1436 3.69243C32.049 3.90341 32.0003 4.12962 32.0003 4.35807C32.0003 4.58653 32.049 4.81273 32.1436 5.02372C32.2382 5.23471 32.3769 5.42632 32.5517 5.58758L34.3205 7.23658C34.4946 7.3984 34.7016 7.52679 34.9295 7.6144C35.1574 7.70201 35.4018 7.74711 35.6486 7.74711C35.8953 7.74711 36.1397 7.70201 36.3676 7.6144C36.5955 7.52679 36.8025 7.3984 36.9767 7.23658L38.7517 5.56444C38.8085 6.12668 38.7512 6.69381 38.5829 7.23658C38.3529 8.02689 37.9028 8.74746 37.2777 9.32622C36.6525 9.90498 35.8741 10.3216 35.0205 10.5346C34.2689 10.7203 33.4801 10.7362 32.7205 10.5808C32.4154 10.521 32.0991 10.5325 31.8001 10.6143C31.5011 10.6962 31.2288 10.8457 31.008 11.0495L22.6518 18.8084L20.0019 16.3552L28.358 8.61363ZM11.6457 29.0033C11.4266 29.2071 11.2656 29.4582 11.1772 29.7339C11.0889 30.0096 11.0759 30.3013 11.1395 30.5828C11.3011 31.2807 11.284 32.004 11.0895 32.6947C10.86 33.4853 10.4101 34.2061 9.78489 34.785C9.15962 35.3638 8.38097 35.7803 7.52699 35.9927C6.93499 36.142 6.31728 36.1832 5.70826 36.1142L7.45199 34.4652C7.80311 34.1397 8.00033 33.6986 8.00033 33.2386C8.00033 32.7786 7.80311 32.3374 7.45199 32.012L5.68326 30.3803C5.50907 30.2185 5.30208 30.0901 5.07417 30.0025C4.84627 29.9149 4.60192 29.8698 4.35515 29.8698C4.10837 29.8698 3.86403 29.9149 3.63612 30.0025C3.40821 30.0901 3.20123 30.2185 3.02704 30.3803L1.2833 32.0467C1.21712 31.4881 1.26374 30.9231 1.4208 30.3803C1.64857 29.5837 2.09977 28.8569 2.72868 28.2736C3.35759 27.6904 4.14186 27.2714 5.00201 27.0592C5.75404 26.8763 6.54209 26.8605 7.30199 27.0129C7.60702 27.0728 7.92336 27.0613 8.22237 26.9794C8.52138 26.8976 8.79363 26.748 9.01447 26.5442L17.3519 18.8084L20.0019 21.2617L11.6457 29.0033ZM25.3081 20.6889C25.3903 20.6884 25.4718 20.703 25.548 20.7318C25.6241 20.7606 25.6934 20.803 25.7518 20.8567L26.1955 21.2675L22.6581 24.5423L22.2143 24.1315C22.0979 24.0231 22.0326 23.8765 22.0326 23.7236C22.0326 23.5707 22.0979 23.4241 22.2143 23.3157L24.8706 20.8567C24.987 20.7498 25.1441 20.6895 25.3081 20.6889ZM3.90203 1.45064L5.00201 2.47475L2.35829 4.9222L1.25205 3.90388L3.90203 1.45064ZM4.52702 6.92992L2.79579 5.33879L5.45201 2.87977L7.17074 4.47669C7.25938 4.55682 7.32029 4.65952 7.34574 4.77177L7.64574 6.17196L6.352 7.36965L4.83952 7.09193C4.71827 7.06837 4.60733 7.01198 4.52077 6.92992H4.52702ZM7.44574 7.99453L8.32698 7.17872L23.1268 20.8567L22.2143 21.7014L7.44574 7.99453ZM26.7455 22.4015L27.2768 24.3629L26.0268 25.5201L23.9081 25.0283L26.7455 22.4015ZM38.5704 33.5394L35.9142 35.9985C35.7971 36.1062 35.6387 36.1667 35.4736 36.1667C35.3085 36.1667 35.1501 36.1062 35.0329 35.9985L26.1955 27.8114C26.0801 27.7036 26.015 27.5581 26.0143 27.4063C26.0138 27.3302 26.0296 27.2547 26.0607 27.1842C26.0918 27.1137 26.1376 27.0496 26.1955 26.9955L28.8455 24.5423C28.9039 24.4887 28.9732 24.4463 29.0493 24.4175C29.1255 24.3887 29.207 24.3741 29.2893 24.3745C29.4532 24.3752 29.6103 24.4354 29.7268 24.5423L38.5704 32.7236C38.6283 32.7777 38.6742 32.8418 38.7053 32.9123C38.7364 32.9828 38.7521 33.0583 38.7517 33.1344C38.751 33.2862 38.6859 33.4317 38.5704 33.5394Z" fill="black"/>
<path d="M27.7388 27.1982C27.6804 27.1452 27.6019 27.1155 27.5201 27.1155C27.4383 27.1155 27.3598 27.1452 27.3013 27.1982C27.2721 27.2251 27.2488 27.2571 27.2329 27.2923C27.2171 27.3276 27.2089 27.3654 27.2089 27.4036C27.2089 27.4418 27.2171 27.4796 27.2329 27.5148C27.2488 27.5501 27.2721 27.5821 27.3013 27.609L35.2513 34.9745C35.3109 35.0299 35.3918 35.0611 35.4763 35.0613C35.5171 35.061 35.5575 35.0532 35.5951 35.0383C35.6327 35.0234 35.6666 35.0017 35.695 34.9745C35.7243 34.9476 35.7475 34.9156 35.7634 34.8803C35.7793 34.8451 35.7874 34.8073 35.7874 34.7691C35.7874 34.7309 35.7793 34.6931 35.7634 34.6578C35.7475 34.6226 35.7243 34.5906 35.695 34.5637L27.7388 27.1982Z" fill="black"/>
<path d="M28.6263 26.3822C28.5675 26.3277 28.4877 26.2971 28.4045 26.2971C28.3212 26.2971 28.2414 26.3277 28.1826 26.3822C28.1237 26.4367 28.0907 26.5106 28.0907 26.5876C28.0907 26.6646 28.1237 26.7385 28.1826 26.793L36.1388 34.1527C36.1671 34.18 36.2011 34.2017 36.2386 34.2166C36.2762 34.2315 36.3166 34.2393 36.3575 34.2395C36.3985 34.24 36.4391 34.2325 36.4768 34.2175C36.5145 34.2026 36.5483 34.1805 36.5762 34.1527C36.6061 34.1267 36.63 34.0954 36.6463 34.0605C36.6625 34.0257 36.6709 33.9882 36.6709 33.9502C36.6709 33.9122 36.6625 33.8747 36.6463 33.8399C36.63 33.805 36.6061 33.7737 36.5762 33.7477L28.6263 26.3822Z" fill="black"/>
<path d="M29.5076 25.5663C29.4785 25.5392 29.4439 25.5176 29.4059 25.503C29.3678 25.4883 29.3269 25.4807 29.2857 25.4807C29.2444 25.4807 29.2036 25.4883 29.1655 25.503C29.1274 25.5176 29.0929 25.5392 29.0638 25.5663C29.0066 25.6204 28.9745 25.6931 28.9745 25.7688C28.9745 25.8445 29.0066 25.9172 29.0638 25.9713L37.02 33.3368C37.0796 33.3922 37.1605 33.4234 37.245 33.4236C37.3274 33.4225 37.406 33.3913 37.4637 33.3368C37.5214 33.2817 37.5536 33.2081 37.5536 33.1314C37.5536 33.0547 37.5214 32.981 37.4637 32.926L29.5076 25.5663Z" fill="black"/>
</svg>
