<svg width="40" height="38" viewBox="0 0 40 38" fill="none" xmlns="http://www.w3.org/2000/svg">
<path d="M37.7114 26.3342C37.3569 26.3342 36.9379 26.3944 36.4866 26.5148L29.6212 28.7427C29.6212 28.7126 29.6212 28.7126 29.6212 28.6825C29.6212 28.6524 29.6212 28.6223 29.6212 28.5922C29.6212 28.5319 29.6212 28.5018 29.6212 28.4416C29.6212 28.4115 29.6212 28.3814 29.6212 28.3814V28.3513V28.3212C29.6212 28.261 29.589 28.1707 29.589 28.1105C29.589 28.1105 29.589 28.1105 29.589 28.0803C29.2989 26.9062 28.1385 26.0331 26.7848 26.0331H21.3376C18.8235 23.0526 12.9895 23.0225 12.7316 23.0225H8.54148V21.5774H0V34.8543H8.54148V33.5898L19.1136 36.7209C19.178 36.751 20.7574 37.1724 22.5624 37.1724C23.6583 37.1724 24.6252 37.0219 25.4633 36.6907C27.5906 35.8779 36.1321 31.6028 38.7106 30.3082C39.4197 29.9469 40.3867 28.9233 39.8387 27.689C39.4197 26.7858 38.7106 26.3342 37.7114 26.3342ZM7.2522 33.6199H1.28928V22.7515H7.2522V22.9623V33.1382V33.6199ZM38.066 29.2244C35.5196 30.519 27.0104 34.7338 24.9476 35.5467C24.3029 35.7876 23.4971 35.9381 22.5624 35.9381C20.9186 35.9381 19.4681 35.5467 19.4681 35.5467L8.50924 32.3253V24.1665H12.6994C12.7639 24.1665 18.4367 24.1966 20.4351 26.9363L20.6285 27.2073H26.7203C27.5261 27.2073 28.203 27.7492 28.2997 28.4717V28.5018C28.2997 28.5621 28.2997 28.5922 28.2997 28.6524C28.2997 28.7126 28.2997 28.7728 28.2674 28.833C28.2674 28.8631 28.2674 28.8932 28.2674 28.9233C28.2674 28.9835 28.2352 29.0438 28.203 29.104C28.203 29.1341 28.203 29.1642 28.1708 29.1642C28.1385 29.2545 28.1063 29.3147 28.0418 29.3749C27.784 29.7362 27.3327 29.977 26.817 29.977H18.4367V31.1813H26.817C27.6873 31.1813 28.4931 30.7899 29.0088 30.1878L36.8412 27.6589C37.1635 27.5685 37.4536 27.5384 37.7114 27.5384C38.1949 27.5384 38.4205 27.689 38.6139 28.1105C38.8718 28.6825 38.2594 29.1341 38.066 29.2244Z" fill="black"/>
<path d="M33.3279 21.1558V9.77561L34.8428 11.1906L35.7453 10.3476L33.3279 8.08966V2.00819H29.4278V4.41669L24.8186 0.141602L13.892 10.3476L14.7945 11.1906L16.3094 9.77561V21.1558H33.3279ZM30.7171 7.337V3.21244H32.0386V8.54125V8.57136V19.9515H17.5986V8.57136L24.8186 1.82755L30.7171 7.337Z" fill="black"/>
</svg>
