<svg width="35" height="38" viewBox="0 0 35 38" fill="none" xmlns="http://www.w3.org/2000/svg">
<path d="M0.649475 29.6479H9.30927V36.7801" fill="black"/>
<path d="M35 37.321H8.33505L0 30.1593V0.290283H35V37.321ZM8.89433 36.2397H33.692V1.37158H1.30799V29.7297L8.89433 36.2397Z" fill="black"/>
<path d="M31.2654 23.538H3.7345V3.37109H31.2744V23.538H31.2654ZM5.04249 22.4567H29.9484V4.44498H5.04249V22.4567Z" fill="black"/>
<path d="M30.607 30.1147H14V31.196H30.607V30.1147Z" fill="black"/>
<path d="M30.616 27.53H22.308V28.6113H30.616V27.53Z" fill="black"/>
<path d="M10.6985 15.969H9.67914V13.8213H6.93687V15.969H5.91754V10.9329H6.93687V13.1473H9.67914V10.9329H10.6985V15.969Z" fill="black"/>
<path d="M16.3995 11.6149H14.5052V15.9771H13.4859V11.6149H11.6186V10.9409H16.3995V11.6149Z" fill="black"/>
<path d="M20.54 14.8063H20.567L22.3441 10.9329H23.6521V15.969H22.6327V12.3548H22.6057L20.9188 15.9764H20.2062L18.4923 12.2882L18.4652 12.2956V15.9764H17.4459V10.9403H18.79L20.54 14.8063Z" fill="black"/>
<path d="M26.2229 15.3031H29.0915V15.9771H25.1946V10.9409H26.2139V15.3031H26.2229Z" fill="black"/>
</svg>
