<svg width="30" height="30" viewBox="0 0 30 30" fill="none" xmlns="http://www.w3.org/2000/svg">
<path d="M3.99855 0C1.79539 0 0.00161311 1.79596 0 4.00396C0 6.21196 1.79378 8.00827 3.99855 8.00827C6.20251 8.00827 7.99537 6.21196 7.99537 4.00396C7.99537 1.79619 6.2024 0 3.99855 0Z" fill="white"/>
<path d="M6.99947 9.61719H0.997097C0.711577 9.61719 0.47998 9.849 0.47998 10.1351V29.4823C0.47998 29.7683 0.711577 30.0001 0.997097 30.0001H6.99935C7.28499 30.0001 7.51659 29.7682 7.51659 29.4823V10.1351C7.5167 9.84888 7.28511 9.61719 6.99947 9.61719Z" fill="white"/>
<path d="M22.3443 9.3894C20.1477 9.3894 18.2174 10.0592 17.0395 11.1514V10.1351C17.0395 9.84898 16.8079 9.61717 16.5222 9.61717H10.7645C10.4789 9.61717 10.2473 9.84898 10.2473 10.1351V29.4823C10.2473 29.7683 10.4789 30.0001 10.7645 30.0001H16.7611C17.0467 30.0001 17.2783 29.7682 17.2783 29.4823V19.9103C17.2783 17.1639 17.7828 15.4616 20.3003 15.4616C22.7805 15.4646 22.9661 17.29 22.9661 20.0744V29.4823C22.9661 29.7683 23.1977 30.0001 23.4835 30.0001H29.4829C29.7684 30.0001 30 29.7682 30 29.4823V18.8695C29.9999 14.4557 29.1297 9.3894 22.3443 9.3894Z" fill="white"/>
</svg>
