<svg width="30" height="30" viewBox="0 0 30 30" fill="none" xmlns="http://www.w3.org/2000/svg">
<path d="M15 0C6.71014 0 0 6.70881 0 15C0 23.2899 6.70881 30 15 30C17.9125 30 20.7667 29.1448 23.19 27.5672C23.9161 27.0945 24.0746 26.0981 23.5258 25.4277L22.9103 24.6757C22.4463 24.1089 21.6293 23.9701 21.0127 24.3655C19.229 25.5095 17.1359 26.129 15 26.129C8.86343 26.129 3.87097 21.1366 3.87097 15C3.87097 8.86343 8.86343 3.87097 15 3.87097C21.0568 3.87097 26.129 7.35599 26.129 13.5484C26.129 15.8943 24.8532 18.3715 22.6107 18.6105C21.5613 18.583 21.5879 17.8328 21.7956 16.7945L23.2129 9.46929C23.3863 8.57359 22.7001 7.74194 21.7878 7.74194H19.0672C18.8663 7.74193 18.6724 7.81588 18.5226 7.94967C18.3728 8.08345 18.2774 8.26772 18.2548 8.46732L18.2542 8.47288C17.3652 7.39016 15.8077 7.15585 14.6269 7.15585C10.116 7.15585 6.29032 10.92 6.29032 16.3167C6.29032 20.2665 8.51522 22.7202 12.0968 22.7202C13.7289 22.7202 15.5667 21.7744 16.6325 20.4016C17.2084 22.4644 19.089 22.4643 20.9093 22.4643C27.4965 22.4643 30 18.1329 30 13.5484C30 5.30159 23.3482 0 15 0ZM13.6887 18.4131C12.343 18.4131 11.5071 17.4682 11.5071 15.9471C11.5071 13.2258 13.3687 11.5482 15.0532 11.5482C16.4015 11.5482 17.2065 12.47 17.2065 14.0141C17.2065 16.7396 15.1576 18.4131 13.6887 18.4131Z" fill="white"/>
</svg>
