<svg width="40" height="38" viewBox="0 0 40 38" fill="none" xmlns="http://www.w3.org/2000/svg">
<path d="M1.29032 32.0309H0C0 34.956 2.45161 37.321 5.48387 37.321H40V4.95802H6.12903V0.290283H5.48387C2.45161 0.290283 0 2.65527 0 5.58039V32.0309H1.29032C1.29032 29.7904 3.16129 27.9855 5.48387 27.9855H6.12903V6.20275H38.7097V36.0763H5.48387C3.16129 36.0763 1.29032 34.2714 1.29032 32.0309ZM4.83871 26.7719C3.41935 26.9275 2.16129 27.6121 1.29032 28.6079V5.58039C1.29032 3.5577 2.83871 1.87731 4.83871 1.59725V26.7719Z" fill="black"/>
<path d="M32.5807 8.69214H28.7097V29.697L30.6452 33.4311L32.5807 29.697V8.69214ZM31.2904 9.93687V13.3599H30V9.93687H31.2904ZM30.6452 30.6305L30 29.3858V14.6046H31.2904V29.3858L30.6452 30.6305Z" fill="black"/>
<path d="M12.9032 23.6289V24.8736H15.4838L13.8709 33.4934L15.129 33.7112L16.7742 24.8736H20.6451L22.2903 33.7112L23.5484 33.4934L21.9355 24.8736H24.5161V23.6289H21.7097L20.9677 19.5213C21.9677 18.8367 22.5806 17.6853 22.5806 16.4717C22.5806 14.6357 21.1935 13.0798 19.3548 12.7997V8.69214H18.0645V12.7997C16.2258 13.1109 14.8387 14.6357 14.8387 16.4717C14.8387 17.6853 15.4516 18.8056 16.4516 19.5213L15.7097 23.6289H12.9032ZM17.4838 18.65C16.6451 18.2143 16.129 17.3741 16.129 16.4717C16.129 15.1025 17.2903 13.9822 18.7097 13.9822C20.129 13.9822 21.2903 15.1025 21.2903 16.4717C21.2903 17.3741 20.7742 18.2143 19.9355 18.65L19.5161 18.8678L20.4193 23.6289H17L17.8709 18.8678L17.4838 18.65Z" fill="black"/>
</svg>
