<svg width="25" height="38" viewBox="0 0 25 38" fill="none" xmlns="http://www.w3.org/2000/svg">
<path d="M21.0938 0.144287H3.90625C2.87025 0.144287 1.87668 0.519425 1.14411 1.18718C0.41155 1.85493 0 2.76059 0 3.70493V33.6144C0 34.5587 0.41155 35.4644 1.14411 36.1321C1.87668 36.7999 2.87025 37.175 3.90625 37.175H21.0938C21.6067 37.175 22.1147 37.0829 22.5886 36.904C23.0625 36.725 23.4932 36.4628 23.8559 36.1321C24.2186 35.8015 24.5063 35.409 24.7027 34.977C24.899 34.545 25 34.0819 25 33.6144V3.70493C25 3.23734 24.899 2.77433 24.7027 2.34233C24.5063 1.91034 24.2186 1.51781 23.8559 1.18718C23.4932 0.85654 23.0625 0.594264 22.5886 0.415325C22.1147 0.236386 21.6067 0.144287 21.0938 0.144287ZM23.4375 33.6144C23.4375 34.181 23.1906 34.7244 22.751 35.125C22.3115 35.5257 21.7154 35.7507 21.0938 35.7507H3.90625C3.28465 35.7507 2.68851 35.5257 2.24897 35.125C1.80943 34.7244 1.5625 34.181 1.5625 33.6144V3.70493C1.5625 3.13833 1.80943 2.59493 2.24897 2.19428C2.68851 1.79363 3.28465 1.56855 3.90625 1.56855H21.0938C21.7154 1.56855 22.3115 1.79363 22.751 2.19428C23.1906 2.59493 23.4375 3.13833 23.4375 3.70493V33.6144Z" fill="black"/>
<path d="M3.22577 30.0537H21.7742V5.84131H3.22577V30.0537ZM4.77147 7.26557H20.2285V28.6294H4.77147V7.26557Z" fill="black"/>
<path d="M12.9032 34.3265C13.794 34.3265 14.5161 33.6889 14.5161 32.9023C14.5161 32.1157 13.794 31.478 12.9032 31.478C12.0124 31.478 11.2903 32.1157 11.2903 32.9023C11.2903 33.6889 12.0124 34.3265 12.9032 34.3265Z" fill="black"/>
<path d="M16.129 2.99268H9.67737V4.41693H16.129V2.99268Z" fill="black"/>
</svg>
