<svg width="30" height="30" viewBox="0 0 30 30" fill="none" xmlns="http://www.w3.org/2000/svg">
<path d="M29.6065 0.320445C29.184 -0.0816181 28.5016 -0.118169 27.3317 0.283894C26.5192 0.576303 19.3049 3.6466 12.9354 6.60725C7.21591 9.27548 2.5688 11.6148 2.01635 11.9072C1.39891 12.1265 0.0665197 12.7844 0.0015253 13.8078C-0.0309719 14.4658 0.456486 15.0506 1.39891 15.5257C2.40632 16.1106 6.85844 17.7919 7.80086 18.1209C8.12583 19.3636 10.0432 26.6373 10.1407 27.0759C10.2706 27.7338 10.6606 28.0993 10.8556 28.2455C10.8881 28.2821 10.9531 28.3552 11.0181 28.3917C11.1156 28.4648 11.2456 28.5014 11.408 28.5014C11.6355 28.5014 11.8955 28.3917 12.123 28.209C13.3254 27.1125 15.4052 24.6635 15.9902 23.9691C18.5574 26.2352 21.3522 28.7573 21.6122 29.0497L21.6447 29.0862C22.2621 29.671 22.9121 30 23.497 30C23.692 30 23.887 29.9634 24.082 29.8903C24.7644 29.6345 25.2519 28.9035 25.4143 27.9166C25.4143 27.88 25.4468 27.7338 25.5118 27.478C26.6167 22.0684 27.4942 17.3167 28.2091 13.3327C28.8915 9.42169 29.444 5.58382 29.769 3.53695C29.834 3.02523 29.899 2.62317 29.9315 2.36731C30.0289 1.63629 30.0939 0.79561 29.6065 0.320445ZM8.4833 18.0112L23.9845 6.46104C24.017 6.42449 24.082 6.38794 24.1145 6.35139C24.1469 6.35139 24.1469 6.31484 24.1794 6.31484C24.2119 6.31484 24.2119 6.31484 24.2444 6.27829C24.2119 6.31484 24.1794 6.42449 24.1145 6.49759L20.1823 10.6279C17.4525 13.4423 13.8778 17.134 11.5055 19.5464V19.5829L11.473 19.6195C11.473 19.6195 11.473 19.656 11.4405 19.656C11.4405 19.6926 11.4405 19.6926 11.408 19.7291V19.8022C11.2456 21.8491 10.9531 25.358 10.8231 26.9297V26.8932C10.6931 26.4545 8.87326 19.4733 8.4833 18.0112Z" fill="white"/>
</svg>
