<svg width="35" height="25" viewBox="0 0 35 25" fill="none" xmlns="http://www.w3.org/2000/svg">
<path d="M17.0628 24.8808H19.1585C19.1585 24.8808 19.7899 24.7949 20.1122 24.3615C20.4185 23.9573 20.4185 23.2094 20.4185 23.2094C20.4185 23.2094 20.3733 19.6856 21.6858 19.1681C22.9793 18.6542 24.62 22.5694 26.3685 24.0744C27.7044 25.2246 28.7092 24.9777 28.7092 24.9777L33.3919 24.8973C33.3919 24.8973 35.8448 24.7053 34.6854 22.2896C34.5965 22.0976 34.0277 20.5067 31.2277 17.2425C28.2935 13.8393 28.6873 14.3879 32.2136 8.48867C34.3559 4.89535 35.2323 2.69912 34.9479 1.7665C34.7059 0.888745 33.1104 1.10635 33.1104 1.10635L27.8575 1.16304C27.8575 1.16304 27.4637 1.10635 27.1794 1.32762C26.895 1.54523 26.7214 2.04263 26.7214 2.04263C26.7214 2.04263 25.8873 4.83865 24.7731 7.19946C22.4062 12.1899 21.4656 12.4642 21.0937 12.135C20.2129 11.42 20.4389 9.24574 20.4389 7.68772C20.4389 2.85822 21.0281 0.830228 19.2999 0.309058C18.7312 0.142651 18.3068 0.0347597 16.8426 0.00550127C14.9614 -0.0200999 13.3747 0.0237883 12.4749 0.574217C11.8843 0.945433 11.4249 1.7665 11.6889 1.80856C12.0389 1.86342 12.8249 2.07554 13.2405 2.79056C13.7874 3.71586 13.7641 5.78225 13.7641 5.78225C13.7641 5.78225 14.0718 11.4804 13.0437 12.1881C12.3218 12.6672 11.3593 11.676 9.25926 7.14826C8.18738 4.84414 7.37654 2.26573 7.37654 2.26573C7.37654 2.26573 7.22341 1.79759 6.94049 1.52329C6.60945 1.22156 6.1282 1.11184 6.1282 1.11184L1.11879 1.1667C1.11879 1.1667 0.375038 1.19596 0.113995 1.60558C-0.12809 1.96217 0.0906611 2.73021 0.0906611 2.73021C0.0906611 2.73021 4.00777 14.227 8.44988 20.0166C12.5186 25.3234 17.1358 24.9814 17.1358 24.9814L17.0628 24.8808Z" fill="white"/>
</svg>
