<svg width="35" height="38" viewBox="0 0 35 38" fill="none" xmlns="http://www.w3.org/2000/svg">
<path d="M31.5 37.3234H3.5C1.575 37.3234 0 35.9796 0 34.3371V3.27907C0 1.63658 1.575 0.292725 3.5 0.292725H17.745C18.69 0.292725 19.565 0.591359 20.23 1.15877L33.985 12.8951C34.65 13.4625 35 14.2091 35 15.0154V34.3371C35 35.9796 33.425 37.3234 31.5 37.3234ZM3.5 1.48726C2.345 1.48726 1.4 2.29358 1.4 3.27907V34.3371C1.4 35.3226 2.345 36.1289 3.5 36.1289H31.5C32.655 36.1289 33.6 35.3226 33.6 34.3371V15.0154C33.6 14.5376 33.39 14.0897 32.97 13.7612L19.215 2.02481C18.83 1.66644 18.305 1.48726 17.745 1.48726H3.5Z" fill="black"/>
<path d="M22.6449 28.3643H19.74L18.13 22.9888C18.06 22.8097 17.955 22.3916 17.815 21.7943C17.675 21.197 17.57 20.7789 17.57 20.5998C17.535 20.8387 17.465 21.2568 17.325 21.8242C17.185 22.3916 17.08 22.7798 17.01 23.0187L15.4 28.3643H12.495L9.44995 18.1211H11.935L13.475 23.7056C13.755 24.7508 13.93 25.6168 14.07 26.3933C14.105 26.1245 14.175 25.7064 14.28 25.1689C14.385 24.6313 14.525 24.1834 14.595 23.8847L16.345 18.151H18.76L20.51 23.8847C20.58 24.1535 20.685 24.5417 20.79 25.0494C20.895 25.5571 20.9999 26.0349 21.07 26.3933C21.1399 26.0349 21.21 25.587 21.35 25.0196C21.49 24.4522 21.595 24.0341 21.665 23.7056L23.205 18.1211H25.69L22.6449 28.3643Z" fill="black"/>
</svg>
